<svg width="40" height="41" viewBox="0 0 40 41" fill="none" xmlns="http://www.w3.org/2000/svg">
<path d="M13.3334 37.1666C14.2538 37.1666 15 36.4205 15 35.5C15 34.5795 14.2538 33.8333 13.3334 33.8333C12.4129 33.8333 11.6667 34.5795 11.6667 35.5C11.6667 36.4205 12.4129 37.1666 13.3334 37.1666Z" stroke="black" stroke-width="2" stroke-linecap="round" stroke-linejoin="round"/>
<path d="M31.6667 37.1666C32.5871 37.1666 33.3333 36.4205 33.3333 35.5C33.3333 34.5795 32.5871 33.8333 31.6667 33.8333C30.7462 33.8333 30 34.5795 30 35.5C30 36.4205 30.7462 37.1666 31.6667 37.1666Z" stroke="black" stroke-width="2" stroke-linecap="round" stroke-linejoin="round"/>
<path d="M3.41669 3.91669H6.75002L11.1834 24.6167C11.346 25.3748 11.7678 26.0525 12.3762 26.5331C12.9846 27.0138 13.7415 27.2673 14.5167 27.25H30.8167C31.5753 27.2488 32.3108 26.9888 32.9017 26.5131C33.4926 26.0373 33.9036 25.3742 34.0667 24.6334L36.8167 12.25H8.53335" stroke="black" stroke-width="2" stroke-linecap="round" stroke-linejoin="round"/>
</svg>
