<svg width="32" height="32" viewBox="0 0 32 32" fill="none" xmlns="http://www.w3.org/2000/svg">
<path d="M20 29.3333C19.6464 29.3333 19.3072 29.1928 19.0572 28.9428C18.8071 28.6927 18.6667 28.3536 18.6667 28V22.6666C18.6666 22.4472 18.7208 22.2311 18.8243 22.0376C18.9278 21.8441 19.0774 21.6791 19.26 21.5573L23.26 18.8906C23.4791 18.7445 23.7366 18.6664 24 18.6664C24.2634 18.6664 24.5209 18.7445 24.74 18.8906L28.74 21.5573C28.9225 21.6791 29.0722 21.8441 29.1757 22.0376C29.2792 22.2311 29.3334 22.4472 29.3333 22.6666V28C29.3333 28.3536 29.1928 28.6927 28.9428 28.9428C28.6928 29.1928 28.3536 29.3333 28 29.3333H20Z" stroke="black" stroke-width="2" stroke-linecap="round" stroke-linejoin="round"/>
<path d="M24 13.3334C24 10.5044 22.8762 7.79127 20.8758 5.79088C18.8754 3.79049 16.1623 2.66669 13.3333 2.66669C10.5043 2.66669 7.79124 3.79049 5.79085 5.79088C3.79046 7.79127 2.66666 10.5044 2.66666 13.3334C2.66666 19.9907 10.052 26.924 12.532 29.0654C12.7632 29.2387 13.0444 29.3323 13.3333 29.332" stroke="black" stroke-width="2" stroke-linecap="round" stroke-linejoin="round"/>
<path d="M24 29.3333V25.3333" stroke="black" stroke-width="2" stroke-linecap="round" stroke-linejoin="round"/>
<path d="M13.3333 17.3333C15.5425 17.3333 17.3333 15.5425 17.3333 13.3333C17.3333 11.1242 15.5425 9.33331 13.3333 9.33331C11.1242 9.33331 9.33334 11.1242 9.33334 13.3333C9.33334 15.5425 11.1242 17.3333 13.3333 17.3333Z" stroke="black" stroke-width="2" stroke-linecap="round" stroke-linejoin="round"/>
</svg>
