<svg width="40" height="40" viewBox="0 0 40 40" fill="none" xmlns="http://www.w3.org/2000/svg">
<g clip-path="url(#clip0_12_243)">
<path d="M21.25 0C10.875 0 2.5 8.45833 2.5 18.875C2.5 22.3333 3.41667 25.6667 5.16667 28.5833L0 40L11.9583 35.3333C14.7917 36.9583 17.9583 37.7917 21.25 37.7917C31.625 37.7917 40 29.3333 40 18.9167C40 8.5 31.5833 0 21.25 0ZM21.25 36.125C18.2917 36.125 15.375 35.375 12.7917 33.875L12.0833 33.4583L3.20833 36.9583L7.04167 28.5L6.58333 27.75C5 25.0833 4.16667 22 4.16667 18.875C4.125 9.41667 11.75 1.66667 21.25 1.66667C30.75 1.66667 38.3333 9.41667 38.3333 18.875C38.3333 28.3333 30.7083 36.125 21.25 36.125ZM27.7917 21.5833C26.5833 21 24.8333 19.875 23.5 20.375C22.6667 20.7083 22.25 21.4583 21.7083 22.125C20.7083 21.625 19.5 20.875 18.875 20.125C18.6667 19.875 18.125 19.25 17.7917 18.7917C17.9583 18.625 18.125 18.4583 18.2917 18.1667C19.0833 16.9583 19.0833 16.3333 18.5417 15.0417C18.3333 14.5417 18.125 14 17.9167 13.5C17.2917 12.0417 16.9167 10.625 14.9583 10.5833C14.375 10.5833 13.8333 10.5417 13.2917 10.75C11.8333 11.25 10.6667 12.9167 10.25 14.375C9.79167 16.0833 10 17.6667 10.7083 19.25C11.4583 20.9583 13.5 23.625 14.8333 24.9167C15.25 25.2917 15.6667 25.625 16.0833 26C16.5417 26.4167 17.0417 26.7083 17.5417 27.0417C19.5 28.3333 23.25 29.75 25.5417 29.2917C27 29 28.7083 27.9583 29.4167 26.625C29.7917 25.9167 30.0417 24.6667 29.9583 23.8333C29.8333 22.4583 28.8333 22.125 27.7917 21.5833ZM27.9583 25.875C27.5833 26.625 26.375 27.4583 25.25 27.6667C23.375 28.0417 19.9583 26.6667 18.4583 25.6667C18 25.3333 17.625 25.125 17.1667 24.75C16.7083 24.375 16.375 24.0833 16 23.7083C14.8333 22.5833 12.875 20 12.25 18.5833C11.75 17.4167 11.4583 16.2083 11.875 14.8333C12.1667 13.8333 13 12.625 13.8333 12.375C14.125 12.25 14.5833 12.2917 14.9583 12.2917C15.875 12.2917 15.9167 13.0417 16.4167 14.1667C16.625 14.7083 16.8333 15.2083 17.0417 15.75C17.375 16.5 17.4167 16.5833 16.9167 17.2917C16 18.6667 14.9583 18.0417 17.625 21.2083C18.5 22.2917 20.25 23.3333 21.625 23.9167C22.375 24.25 22.625 23.7083 22.9583 23.2917C24.4167 21.5417 23.625 21.375 27.0833 23.0833C27.8333 23.4583 28.2917 23.5417 28.375 24.0417C28.375 24.5417 28.1667 25.5 27.9583 25.875Z" fill="black"/>
</g>
<defs>
<clipPath id="clip0_12_243">
<rect width="40" height="40" fill="white"/>
</clipPath>
</defs>
</svg>
